<?xml version="1.0" encoding="UTF-8"?>
<svg xmlns="http://www.w3.org/2000/svg" width="64" height="64" viewBox="0 0 64 64" fill="none">
  <!-- Stroke uses #06b6d4 so it adapts to your site's color -->
  <g stroke="#06b6d4" stroke-width="2.5" stroke-linecap="round" stroke-linejoin="round">
    <!-- Document with folded corner -->
    <path d="M14 8h22l12 12v28a6 6 0 0 1-6 6H14a6 6 0 0 1-6-6V14a6 6 0 0 1 6-6z"/>
    <path d="M36 8v12a6 6 0 0 0 6 6h12"/>
    <!-- Text lines -->
    <line x1="18" y1="28" x2="34" y2="28"/>
    <line x1="18" y1="34" x2="38" y2="34"/>
    <line x1="18" y1="40" x2="30" y2="40"/>
    <!-- Pen nib -->
    <path d="M26 44l6-6 10 10-6 6-6-2-4-8z"/>
    <circle cx="29" cy="47" r="1.8"/>
  </g>
</svg>
